<svg id="Layer_1" xmlns="http://www.w3.org/2000/svg" viewBox="0 0 432 364"><style>.st0{opacity:.22;fill:#81b441}.st1{fill:none;stroke:#a6abb0;stroke-width:4;stroke-linecap:round;stroke-miterlimit:10;stroke-dasharray:2,8}.st1,.st2{opacity:.3}.st3{stroke-width:4;stroke-linecap:round;stroke-miterlimit:10}.st3,.st4,.st5{fill:none;stroke:#a6abb0}.st4{stroke-width:4;stroke-linecap:round;stroke-miterlimit:10;stroke-dasharray:1.9503,7.8014}.st5{stroke-linejoin:round}.st5,.st6,.st7,.st8,.st9{stroke-width:4;stroke-linecap:round;stroke-miterlimit:10}.st6{opacity:.6;stroke-linejoin:round;fill:none;stroke:#a6abb0}.st7,.st8,.st9{fill:#fff;stroke:#81b441}.st8,.st9{opacity:.3;fill:none;stroke:#a6abb0}.st9{opacity:.8;stroke:#fff}.st10{fill:#eaedef}.st11,.st12{fill:none;stroke-width:3}.st11{stroke-linecap:round;stroke-linejoin:round;stroke-miterlimit:10;stroke:#a6abb0}.st12{stroke:#81b441}.st12,.st13,.st14{stroke-linecap:round;stroke-miterlimit:10}.st13{opacity:.3;fill:none;stroke:#a6abb0;stroke-width:3}.st14{fill:#fff;stroke:#fff;stroke-width:12}.st15{opacity:.3;fill:#a6abb0}.st16{fill:none;stroke:#a6abb0;stroke-width:4;stroke-miterlimit:10;stroke-dasharray:1.9884,7.9537}.st16,.st17,.st18{stroke-linecap:round}.st17{fill:none;stroke-miterlimit:10;stroke-dasharray:1.9726,7.8905;stroke:#a6abb0;stroke-width:4}.st18{opacity:.45;stroke:#81b441;stroke-width:2}.st18,.st19,.st20{fill:none;stroke-miterlimit:10}.st19{stroke-linecap:round;stroke:#81b441;stroke-width:4}.st20{opacity:.3;stroke:#a6abb0;stroke-width:2}.st21{fill:#fff}.st22{opacity:.4;fill:#e4e6e7}.st23{opacity:.1;fill:#a6abb0}.st24{opacity:.7;fill:none;stroke:#a6abb0;stroke-width:2;stroke-miterlimit:10}.st25{fill:#81b441}.st26,.st27{stroke-linejoin:round}.st26{fill:none;stroke:#231f20;stroke-width:2;stroke-miterlimit:10}.st27{stroke-linecap:round}.st27,.st28{fill:none;stroke:#231f20;stroke-width:2;stroke-miterlimit:10}.st29{fill:none;stroke:#e4e6e7;stroke-width:3;stroke-linecap:round;stroke-linejoin:round}.st29,.st30,.st31,.st32{stroke-miterlimit:10}.st30{fill:none;stroke:#81b441;stroke-width:3}.st31,.st32{stroke-linecap:round}.st31{opacity:.3;fill:none;stroke:#a6abb0;stroke-width:2}.st32{fill:#fff;stroke:#e4e6e7;stroke-width:3;stroke-linejoin:round}.st33,.st34{stroke-width:4}.st33{fill:#fff;stroke-linecap:round;stroke-linejoin:round;stroke-miterlimit:10;stroke:#cacdd0}.st34{stroke:#a6abb0;stroke-dasharray:2.0569,8.2275}.st34,.st35,.st36,.st37{fill:none;stroke-linecap:round;stroke-miterlimit:10}.st35{stroke:#e4e6e7;stroke-width:4}.st36,.st37{stroke-width:3}.st36{stroke-dasharray:1,4;stroke:#cacdd0}.st37{stroke:#e4e6e7}.st38{opacity:.8;fill:#fff}.st39{fill:none;stroke:#e4e6e7;stroke-width:2;stroke-linejoin:round;stroke-miterlimit:10}.st39,.st40{stroke-linecap:round}.st40,.st41{fill:#fff;stroke:#e4e6e7;stroke-width:2;stroke-miterlimit:10}.st41,.st42,.st43{stroke-linecap:round;stroke-linejoin:round}.st42{fill:#fff;stroke:#cacdd0;stroke-miterlimit:10;stroke-width:3}.st43{stroke-width:4}.st43,.st44,.st45{fill:#fff;stroke:#e4e6e7;stroke-miterlimit:10}.st44{stroke-linecap:round;stroke-width:3}.st45{stroke-width:2}</style><path class="st0" d="M281.3 133h38.1c4.2 0 7.6 3.4 7.6 7.6v102.6c0 4.2-3.4 7.6-7.6 7.6H135.6c-4.2 0-7.6-3.4-7.6-7.6V140.6c0-4.2 3.4-7.6 7.6-7.6h18.8"/><path class="st8" d="M375.9 280.1H336M106 280.1H96M155.9 291.4H53.4"/><path class="st19" d="M273.9 126.9h37.5c4.1 0 7.5 3.4 7.5 7.5v101.1c0 4.1-3.4 7.5-7.5 7.5h-181c-4.1 0-7.5-3.4-7.5-7.5V134.4c0-4.1 3.4-7.5 7.5-7.5h18.5"/><circle class="st9" cx="145.5" cy="185.7" r="4.5"/><path class="st38" d="M303.6 188.7l-2.1-2.1 2.1-2.1c.6-.6.6-1.5 0-2.1-.6-.6-1.5-.6-2.1 0l-2.1 2.1-2.1-2.1c-.6-.6-1.5-.6-2.1 0s-.6 1.5 0 2.1l2.1 2.1-2.1 2.1c-.6.6-.6 1.5 0 2.1.6.6 1.5.6 2.1 0l2.1-2.1 2.1 2.1c.6.6 1.5.6 2.1 0 .5-.6.5-1.5 0-2.1z"/><path class="st1" d="M114.9 153.2H69.6c-10.8 0-19.6-8.8-19.6-19.6 0-9.1 6.2-16.8 14.7-19-.3-1.5-.5-3.1-.5-4.7 0-13.8 11.2-25 25-25 7.9 0 14.9 3.7 19.5 9.4 3.4-1.9 7.2-3 11.4-3 12.9 0 23.4 10.5 23.4 23.4v.2c1.4.5 2.7 1.1 3.9 1.8"/><circle class="st24" cx="168" cy="291.2" r="4"/><path class="st35" d="M323.3 280.1H127"/><path class="st43" d="M300.8 279.3c.3-9.7-2.2-19.7-3-22.5-1.8-6.1-7.8-30.9-8.1-37.5-.3-6.6-8.1-11.1-8.1-11.1-23-13.8-52-18.1-62.5-18.9 0-.4-28.8-.2-60 18.5 0 0-7.8 4.6-8.1 11.1-.3 6.6-6.3 31.4-8.1 37.5-.8 2.6-3.1 13.6-3.1 22.9"/><path class="st44" d="M190.5 152.9c-6.9-1.5-5.2 5.5-5.1 6v.1c1.1 9.7 4.3 10.9 6.4 10.7.9-.1 1.8.5 1.9 1.5 1.1 6.3 6.5 14.2 7.7 15.8.1.2.4.3.6.3h33c.2 0 .5-.1.6-.3 1.2-1.7 6.8-9.9 7.8-16.3.1-.8.8-1.2 1.6-1.1 2 .4 5.5-.5 6.6-10.6v-.1c.2-.6 1.8-7.5-5.1-6"/><path class="st40" d="M248.4 198c.3 0 .5-.1.7-.2l2.7-2.7c.3-.3.3-.7.1-1-1.5-2.4-8.8-9.8-32-10.1h-.1c-23.5 1.1-30.8 7.7-32.4 10.1-.2.3-.2.7.1 1l2.7 2.7c.2.2.4.3.7.2"/><path class="st45" d="M246.5 121.3c-.5-.9-.8-1.6-.8-1.6-.5-.9-.8-1.5-1.2-2.1-1.9-2.4-4.4-4.1-6-5-.6-.3-.5-1.2.2-1.3.7-.2.7-1.1.1-1.4-12.9-5.1-21.3-3.9-27.3-1.6-.5.2-1-.2-1-.8 0-.4.1-.9.3-1.4.2-.6-.4-1.1-1-.9-1.4.5-3.4 1.4-5.8 2.8-1.8-.3-3.6-.5-5.5-.7-.9-.1-1.5.9-1 1.7.2.3 1 1.1 2.1 2-4.3 3.5-8.5 8.6-10.5 15.8-1.9 7.6-1.2 15.1-.3 20 .5 2.9 1.9 5.5 4 7.5 1.4 1.4 3 3.3 4.2 6 2.5 5.6 3.9 10 4.7 13.8.3 1.3 1.6 2.1 2.9 1.7 2.3-.8 6.6-1.7 13.8-1.6h-.3c7.1-.1 11.4.8 13.8 1.6 1.3.4 2.6-.4 2.9-1.7.8-3.8 2.2-8.2 4.7-13.8 1.9-4.1 4.8-6.6 6.2-7.6.7-.5 1.2-1.1 1.6-1.8 1.2-2.1 3.1-6.8 3.1-14.2-.1-5.3-1.5-10.6-3.9-15.4z"/><path class="st23" d="M155.4 279v-36.9c0-11 9-20.1 20.1-20.1h90.4c11 0 20.1 9 20.1 20.1V280"/><path class="st5" d="M254 221.3h10.9c11 0 20.1 9 20.1 20.1v37.9M154.4 278.4v-36.9c0-11 9-20.1 20.1-20.1H220M245 221.3h1.5"/></svg>